<?xml version="1.0" encoding="UTF-8"?>
<!DOCTYPE svg PUBLIC "-//W3C//DTD SVG 1.1//EN" "http://www.w3.org/Graphics/SVG/1.1/DTD/svg11.dtd">
<svg xmlns="http://www.w3.org/2000/svg" version="1.1" width="512px" height="512px" style="shape-rendering:geometricPrecision; text-rendering:geometricPrecision; image-rendering:optimizeQuality; fill-rule:evenodd; clip-rule:evenodd" xmlns:xlink="http://www.w3.org/1999/xlink">
<g><path style="opacity:0.996" fill="#020617" d="M 511.5,84.5 C 511.5,156.5 511.5,228.5 511.5,300.5C 502.448,332.067 484.781,357.9 458.5,378C 423.661,403.295 384.994,420.295 342.5,429C 271.298,443.227 200.965,439.894 131.5,419C 90.7507,406.387 55.9174,384.554 27,353.5C 14.1161,337.731 4.9494,320.065 -0.5,300.5C -0.5,283.5 -0.5,266.5 -0.5,249.5C 7.97988,221.066 23.6466,197.233 46.5,178C 82.5091,149.669 123.176,131.003 168.5,122C 245.802,105.801 321.469,111.301 395.5,138.5C 424.282,117.56 452.949,96.3931 481.5,75C 494.159,70.4996 504.159,73.6663 511.5,84.5 Z"/></g>
<g><path style="opacity:0.999" fill="#fa9872" d="M 252.5,197.5 C 252.539,198.583 252.873,199.583 253.5,200.5C 252.01,201.826 250.676,203.326 249.5,205C 248.649,207.602 248.649,210.436 249.5,213.5C 247.032,215.991 247.698,217.824 251.5,219C 250.09,219.368 249.09,220.201 248.5,221.5C 252.757,225.175 252.09,227.675 246.5,229C 247.833,230 249.167,231 250.5,232C 249.167,233 247.833,234 246.5,235C 249.838,236.988 250.172,239.321 247.5,242C 248.5,242.833 249.5,243.667 250.5,244.5C 248.157,245.144 247.157,247.144 247.5,250.5C 242.214,254.284 237.38,258.617 233,263.5C 227.696,273.491 228.696,282.825 236,291.5C 239.727,294.447 243.894,296.447 248.5,297.5C 249.293,300.617 247.96,302.783 244.5,304C 246.055,305.646 247.721,305.979 249.5,305C 248.833,305.667 248.167,306.333 247.5,307C 247.404,308.373 247.57,309.873 248,311.5C 247.189,310.04 246.355,309.707 245.5,310.5C 246.263,311.719 247.263,312.719 248.5,313.5C 247.603,313.669 246.603,314.002 245.5,314.5C 246.5,315.167 247.5,315.833 248.5,316.5C 247.02,317.113 245.687,317.446 244.5,317.5C 245.747,319.042 245.747,320.542 244.5,322C 245.744,322.456 246.577,321.956 247,320.5C 248.472,323.463 247.639,325.963 244.5,328C 248.5,329.333 248.5,330.667 244.5,332C 245.448,332.483 246.448,332.649 247.5,332.5C 247.5,333.5 247.5,334.5 247.5,335.5C 244.001,335.259 243.668,336.092 246.5,338C 245.833,338.333 245.167,338.667 244.5,339C 244.694,340.43 244.694,341.93 244.5,343.5C 245.373,345.413 246.373,347.247 247.5,349C 244.679,350.621 244.013,352.788 245.5,355.5C 240.488,359.029 236.655,363.695 234,369.5C 233.5,377.159 233.334,384.826 233.5,392.5C 220.528,392.535 207.861,391.202 195.5,388.5C 197.833,388.5 200.167,388.5 202.5,388.5C 202.33,387.178 202.663,386.011 203.5,385C 200.686,384.221 199.02,382.888 198.5,381C 199.939,380.009 200.939,378.676 201.5,377C 201.701,374.301 201.368,371.468 200.5,368.5C 201.782,366.821 202.782,364.987 203.5,363C 201.905,363.617 200.572,363.284 199.5,362C 204.941,358.919 204.607,356.919 198.5,356C 198.836,353.699 200.169,351.532 202.5,349.5C 200.262,346.194 200.595,343.694 203.5,342C 202.796,338.834 201.796,336.168 200.5,334C 202.027,332.307 203.36,330.473 204.5,328.5C 203.482,327.148 202.149,326.148 200.5,325.5C 202.991,324.459 202.991,323.626 200.5,323C 201.5,322.667 202.5,322.333 203.5,322C 202.289,320.887 202.289,319.72 203.5,318.5C 203.023,317.522 202.357,316.689 201.5,316C 202.167,315.667 202.833,315.333 203.5,315C 200.644,313.571 200.144,311.737 202,309.5C 202.914,310.654 203.747,310.487 204.5,309C 203.874,308.25 203.374,307.416 203,306.5C 201.334,307.34 201.167,306.84 202.5,305C 198.578,302.677 198.912,302.177 203.5,303.5C 207.715,300.678 207.382,299.011 202.5,298.5C 202.33,297.178 202.663,296.011 203.5,295C 200.833,294 200.833,293 203.5,292C 202.55,289.568 202.55,287.068 203.5,284.5C 204.552,284.649 205.552,284.483 206.5,284C 205.167,283.333 205.167,282.667 206.5,282C 203.194,280.077 203.528,278.077 207.5,276C 206.24,274.887 205.073,274.72 204,275.5C 203.667,273.833 203.333,272.167 203,270.5C 202.195,272.901 201.362,272.734 200.5,270C 202.044,269.71 203.377,269.044 204.5,268C 203.483,266.951 203.316,265.784 204,264.5C 204.718,265.451 205.551,265.617 206.5,265C 206.035,261.674 204.702,257.841 202.5,253.5C 203.989,253.467 205.322,252.967 206.5,252C 205.521,250.221 205.854,248.555 207.5,247C 206.551,246.383 205.718,246.549 205,247.5C 204.308,246.975 203.808,246.308 203.5,245.5C 206.078,245.323 206.078,244.157 203.5,242C 206.167,241 206.167,240 203.5,239C 204.624,238.751 205.624,238.251 206.5,237.5C 205.738,237.089 204.738,236.923 203.5,237C 204.634,235.984 204.301,235.317 202.5,235C 203.833,234 203.833,233 202.5,232C 208.725,228.279 208.725,226.446 202.5,226.5C 204.113,225.573 205.779,224.739 207.5,224C 205.915,223.915 204.582,223.749 203.5,223.5C 204.5,221.833 205.833,220.5 207.5,219.5C 206.738,219.089 205.738,218.923 204.5,219C 205.833,218 207.167,217 208.5,216C 207.09,215.632 206.09,214.799 205.5,213.5C 206.711,212.28 206.711,211.113 205.5,210C 206.624,209.751 207.624,209.251 208.5,208.5C 207.833,208.167 207.167,207.833 206.5,207.5C 207.939,205.657 207.772,203.99 206,202.5C 205.667,203.167 205.333,203.833 205,204.5C 203.733,202.576 203.733,200.91 205,199.5C 205.333,200.167 205.667,200.833 206,201.5C 206.318,199.939 207.151,198.772 208.5,198C 206.915,197.915 205.582,197.749 204.5,197.5C 207.1,194.959 207.1,192.459 204.5,190C 205.479,188.221 205.146,186.555 203.5,185C 205.679,184.558 206.345,183.558 205.5,182C 209.002,179.989 209.002,178.656 205.5,178C 208.557,177.449 208.89,175.783 206.5,173C 207.458,171.853 207.125,170.853 205.5,170C 206.573,168.75 206.573,167.416 205.5,166C 208.071,162.037 206.737,160.537 201.5,161.5C 211.902,159.198 222.569,158.198 233.5,158.5C 233.094,166.917 233.594,175.251 235,183.5C 238.465,191.147 244.299,195.813 252.5,197.5 Z"/></g>
<g><path style="opacity:0.999" fill="#f99171" d="M 290.5,159.5 C 289.064,160.429 287.731,161.595 286.5,163C 287.996,163.507 289.163,163.007 290,161.5C 290.711,163.367 290.211,164.867 288.5,166C 291.985,166.493 292.485,167.993 290,170.5C 289.086,169.346 288.253,169.513 287.5,171C 289.113,173.228 289.78,175.728 289.5,178.5C 288.448,178.351 287.448,178.517 286.5,179C 286.5,180.333 286.5,181.667 286.5,183C 287.167,183.667 287.833,184.333 288.5,185C 286.789,186.133 286.289,187.633 287,189.5C 287.333,189.167 287.667,188.833 288,188.5C 289.067,189.191 290.234,189.691 291.5,190C 290.151,190.772 289.318,191.939 289,193.5C 288.667,192.833 288.333,192.167 288,191.5C 287.691,192.766 287.191,193.933 286.5,195C 287.833,195.667 287.833,196.333 286.5,197C 288.891,197.691 288.891,198.691 286.5,200C 287.715,202.096 288.549,201.929 289,199.5C 289.167,200 289.333,200.5 289.5,201C 288.385,202.235 288.385,203.402 289.5,204.5C 287.078,206.726 287.078,209.06 289.5,211.5C 288.005,211.478 286.338,211.811 284.5,212.5C 286.078,213.298 287.744,213.798 289.5,214C 288.5,214.333 287.5,214.667 286.5,215C 286.164,216.629 286.83,218.129 288.5,219.5C 275.141,230.186 261.474,240.52 247.5,250.5C 247.157,247.144 248.157,245.144 250.5,244.5C 249.5,243.667 248.5,242.833 247.5,242C 250.172,239.321 249.838,236.988 246.5,235C 247.833,234 249.167,233 250.5,232C 249.167,231 247.833,230 246.5,229C 252.09,227.675 252.757,225.175 248.5,221.5C 249.09,220.201 250.09,219.368 251.5,219C 247.698,217.824 247.032,215.991 249.5,213.5C 248.649,210.436 248.649,207.602 249.5,205C 250.676,203.326 252.01,201.826 253.5,200.5C 252.873,199.583 252.539,198.583 252.5,197.5C 264.925,197.9 273.092,192.233 277,180.5C 277.5,173.174 277.666,165.841 277.5,158.5C 281.881,158.372 286.215,158.705 290.5,159.5 Z"/></g>
<g><path style="opacity:0.999" fill="#f88b71" d="M 290.5,159.5 C 303.604,160.539 316.604,162.372 329.5,165C 337.546,166.259 345.213,168.592 352.5,172C 331.286,188.095 309.952,203.929 288.5,219.5C 286.83,218.129 286.164,216.629 286.5,215C 287.5,214.667 288.5,214.333 289.5,214C 287.744,213.798 286.078,213.298 284.5,212.5C 286.338,211.811 288.005,211.478 289.5,211.5C 287.078,209.06 287.078,206.726 289.5,204.5C 288.385,203.402 288.385,202.235 289.5,201C 289.333,200.5 289.167,200 289,199.5C 288.549,201.929 287.715,202.096 286.5,200C 288.891,198.691 288.891,197.691 286.5,197C 287.833,196.333 287.833,195.667 286.5,195C 287.191,193.933 287.691,192.766 288,191.5C 288.333,192.167 288.667,192.833 289,193.5C 289.318,191.939 290.151,190.772 291.5,190C 290.234,189.691 289.067,189.191 288,188.5C 287.667,188.833 287.333,189.167 287,189.5C 286.289,187.633 286.789,186.133 288.5,185C 287.833,184.333 287.167,183.667 286.5,183C 286.5,181.667 286.5,180.333 286.5,179C 287.448,178.517 288.448,178.351 289.5,178.5C 289.78,175.728 289.113,173.228 287.5,171C 288.253,169.513 289.086,169.346 290,170.5C 292.485,167.993 291.985,166.493 288.5,166C 290.211,164.867 290.711,163.367 290,161.5C 289.163,163.007 287.996,163.507 286.5,163C 287.731,161.595 289.064,160.429 290.5,159.5 Z"/></g>
<g><path style="opacity:0.999" fill="#fa9f72" d="M 201.5,161.5 C 206.737,160.537 208.071,162.037 205.5,166C 206.573,167.416 206.573,168.75 205.5,170C 207.125,170.853 207.458,171.853 206.5,173C 208.89,175.783 208.557,177.449 205.5,178C 209.002,178.656 209.002,179.989 205.5,182C 206.345,183.558 205.679,184.558 203.5,185C 205.146,186.555 205.479,188.221 204.5,190C 207.1,192.459 207.1,194.959 204.5,197.5C 205.582,197.749 206.915,197.915 208.5,198C 207.151,198.772 206.318,199.939 206,201.5C 205.667,200.833 205.333,200.167 205,199.5C 203.733,200.91 203.733,202.576 205,204.5C 205.333,203.833 205.667,203.167 206,202.5C 207.772,203.99 207.939,205.657 206.5,207.5C 207.167,207.833 207.833,208.167 208.5,208.5C 207.624,209.251 206.624,209.751 205.5,210C 206.711,211.113 206.711,212.28 205.5,213.5C 206.09,214.799 207.09,215.632 208.5,216C 207.167,217 205.833,218 204.5,219C 205.738,218.923 206.738,219.089 207.5,219.5C 205.833,220.5 204.5,221.833 203.5,223.5C 204.582,223.749 205.915,223.915 207.5,224C 205.779,224.739 204.113,225.573 202.5,226.5C 208.725,226.446 208.725,228.279 202.5,232C 203.833,233 203.833,234 202.5,235C 204.301,235.317 204.634,235.984 203.5,237C 204.738,236.923 205.738,237.089 206.5,237.5C 205.624,238.251 204.624,238.751 203.5,239C 206.167,240 206.167,241 203.5,242C 206.078,244.157 206.078,245.323 203.5,245.5C 203.808,246.308 204.308,246.975 205,247.5C 205.718,246.549 206.551,246.383 207.5,247C 205.854,248.555 205.521,250.221 206.5,252C 205.322,252.967 203.989,253.467 202.5,253.5C 204.702,257.841 206.035,261.674 206.5,265C 205.551,265.617 204.718,265.451 204,264.5C 203.316,265.784 203.483,266.951 204.5,268C 203.377,269.044 202.044,269.71 200.5,270C 201.362,272.734 202.195,272.901 203,270.5C 203.333,272.167 203.667,273.833 204,275.5C 205.073,274.72 206.24,274.887 207.5,276C 203.528,278.077 203.194,280.077 206.5,282C 205.167,282.667 205.167,283.333 206.5,284C 205.552,284.483 204.552,284.649 203.5,284.5C 202.55,287.068 202.55,289.568 203.5,292C 200.833,293 200.833,294 203.5,295C 202.663,296.011 202.33,297.178 202.5,298.5C 207.382,299.011 207.715,300.678 203.5,303.5C 198.912,302.177 198.578,302.677 202.5,305C 201.167,306.84 201.334,307.34 203,306.5C 203.374,307.416 203.874,308.25 204.5,309C 203.747,310.487 202.914,310.654 202,309.5C 200.144,311.737 200.644,313.571 203.5,315C 202.833,315.333 202.167,315.667 201.5,316C 202.357,316.689 203.023,317.522 203.5,318.5C 202.289,319.72 202.289,320.887 203.5,322C 202.5,322.333 201.5,322.667 200.5,323C 202.991,323.626 202.991,324.459 200.5,325.5C 202.149,326.148 203.482,327.148 204.5,328.5C 203.36,330.473 202.027,332.307 200.5,334C 201.796,336.168 202.796,338.834 203.5,342C 200.595,343.694 200.262,346.194 202.5,349.5C 200.169,351.532 198.836,353.699 198.5,356C 204.607,356.919 204.941,358.919 199.5,362C 200.572,363.284 201.905,363.617 203.5,363C 202.782,364.987 201.782,366.821 200.5,368.5C 201.368,371.468 201.701,374.301 201.5,377C 200.939,378.676 199.939,380.009 198.5,381C 199.02,382.888 200.686,384.221 203.5,385C 202.663,386.011 202.33,387.178 202.5,388.5C 200.167,388.5 197.833,388.5 195.5,388.5C 183.112,387.067 171.112,384.4 159.5,380.5C 162.389,379.951 164.056,378.118 164.5,375C 163.728,373.779 162.728,372.779 161.5,372C 163.032,369.966 164.365,367.799 165.5,365.5C 165.684,361.931 164.351,358.764 161.5,356C 162.253,354.513 163.086,354.346 164,355.5C 164.617,354.551 164.451,353.718 163.5,353C 165.901,352.195 165.734,351.362 163,350.5C 162.333,349.833 162.333,349.167 163,348.5C 164.049,349.517 165.216,349.684 166.5,349C 163.388,348.149 163.054,346.983 165.5,345.5C 164.5,344.667 163.5,343.833 162.5,343C 164.793,339.706 165.46,336.206 164.5,332.5C 163.448,332.649 162.448,332.483 161.5,332C 162.834,329.956 164.167,328.623 165.5,328C 164.465,327.747 163.465,326.914 162.5,325.5C 163.262,325.089 164.262,324.923 165.5,325C 161.66,322.027 161.66,320.194 165.5,319.5C 164.438,318.23 163.438,317.063 162.5,316C 163.167,315.667 163.833,315.333 164.5,315C 165.024,313.877 165.024,312.544 164.5,311C 165.272,309.779 166.272,308.779 167.5,308C 166.251,306.176 165.085,306.343 164,308.5C 165.131,306.023 164.631,303.857 162.5,302C 163.5,301.667 164.5,301.333 165.5,301C 164.761,298.765 164.761,296.765 165.5,295C 163.203,293.84 163.536,292.84 166.5,292C 165.692,291.692 165.025,291.192 164.5,290.5C 165.641,289.575 165.641,288.741 164.5,288C 167.167,287.333 167.167,286.667 164.5,286C 167.167,285.333 167.167,284.667 164.5,284C 165.308,283.692 165.975,283.192 166.5,282.5C 163.922,280.956 164.255,278.789 167.5,276C 166.672,275.085 165.672,274.419 164.5,274C 165.833,271 167.167,268 168.5,265C 167.5,264.667 166.5,264.333 165.5,264C 167.181,262.055 167.848,260.055 167.5,258C 166.551,257.383 165.718,257.549 165,258.5C 165.148,257.175 164.982,256.008 164.5,255C 165.701,254.097 166.535,252.931 167,251.5C 167.333,252.167 167.667,252.833 168,253.5C 166.868,250.583 166.368,247.583 166.5,244.5C 167.529,244.704 168.529,244.204 169.5,243C 168.448,241.881 167.281,241.381 166,241.5C 165.621,239.43 166.455,237.93 168.5,237C 167.747,235.513 166.914,235.346 166,236.5C 162.333,233.833 162.667,231.833 167,230.5C 167.805,232.901 168.638,232.734 169.5,230C 164.732,227.494 164.398,224.328 168.5,220.5C 167.45,218.898 168.117,218.065 170.5,218C 169.299,217.097 168.465,215.931 168,214.5C 167.577,215.956 166.744,216.456 165.5,216C 166.956,213.734 167.79,211.234 168,208.5C 168.17,210.715 168.837,212.715 170,214.5C 170.5,214 171,213.5 171.5,213C 169.473,211.604 169.14,209.938 170.5,208C 169.675,206.312 168.675,206.145 167.5,207.5C 165.34,205.907 165.173,204.24 167,202.5C 168,202.833 169,203.167 170,203.5C 170.167,203 170.333,202.5 170.5,202C 169.465,201.747 168.465,200.914 167.5,199.5C 170.076,198.117 169.742,197.283 166.5,197C 167.167,196.667 167.833,196.333 168.5,196C 169.061,194.434 168.394,193.101 166.5,192C 167.253,190.513 168.086,190.346 169,191.5C 168.57,189.873 168.404,188.373 168.5,187C 170.554,185.318 170.221,183.651 167.5,182C 168.167,181.667 168.833,181.333 169.5,181C 168.754,178.907 168.421,176.907 168.5,175C 173.957,171.25 173.29,169.083 166.5,168.5C 177.814,165.037 189.481,162.704 201.5,161.5 Z"/></g>
<g><path style="opacity:0.999" fill="#fba572" d="M 166.5,168.5 C 173.29,169.083 173.957,171.25 168.5,175C 168.421,176.907 168.754,178.907 169.5,181C 168.833,181.333 168.167,181.667 167.5,182C 170.221,183.651 170.554,185.318 168.5,187C 168.404,188.373 168.57,189.873 169,191.5C 168.086,190.346 167.253,190.513 166.5,192C 168.394,193.101 169.061,194.434 168.5,196C 167.833,196.333 167.167,196.667 166.5,197C 169.742,197.283 170.076,198.117 167.5,199.5C 168.465,200.914 169.465,201.747 170.5,202C 170.333,202.5 170.167,203 170,203.5C 169,203.167 168,202.833 167,202.5C 165.173,204.24 165.34,205.907 167.5,207.5C 168.675,206.145 169.675,206.312 170.5,208C 169.14,209.938 169.473,211.604 171.5,213C 171,213.5 170.5,214 170,214.5C 168.837,212.715 168.17,210.715 168,208.5C 167.79,211.234 166.956,213.734 165.5,216C 166.744,216.456 167.577,215.956 168,214.5C 168.465,215.931 169.299,217.097 170.5,218C 168.117,218.065 167.45,218.898 168.5,220.5C 164.398,224.328 164.732,227.494 169.5,230C 168.638,232.734 167.805,232.901 167,230.5C 162.667,231.833 162.333,233.833 166,236.5C 166.914,235.346 167.747,235.513 168.5,237C 166.455,237.93 165.621,239.43 166,241.5C 167.281,241.381 168.448,241.881 169.5,243C 168.529,244.204 167.529,244.704 166.5,244.5C 166.368,247.583 166.868,250.583 168,253.5C 167.667,252.833 167.333,252.167 167,251.5C 166.535,252.931 165.701,254.097 164.5,255C 164.982,256.008 165.148,257.175 165,258.5C 165.718,257.549 166.551,257.383 167.5,258C 167.848,260.055 167.181,262.055 165.5,264C 166.5,264.333 167.5,264.667 168.5,265C 167.167,268 165.833,271 164.5,274C 165.672,274.419 166.672,275.085 167.5,276C 164.255,278.789 163.922,280.956 166.5,282.5C 165.975,283.192 165.308,283.692 164.5,284C 167.167,284.667 167.167,285.333 164.5,286C 167.167,286.667 167.167,287.333 164.5,288C 165.641,288.741 165.641,289.575 164.5,290.5C 165.025,291.192 165.692,291.692 166.5,292C 163.536,292.84 163.203,293.84 165.5,295C 164.761,296.765 164.761,298.765 165.5,301C 164.5,301.333 163.5,301.667 162.5,302C 164.631,303.857 165.131,306.023 164,308.5C 165.085,306.343 166.251,306.176 167.5,308C 166.272,308.779 165.272,309.779 164.5,311C 165.024,312.544 165.024,313.877 164.5,315C 163.833,315.333 163.167,315.667 162.5,316C 163.438,317.063 164.438,318.23 165.5,319.5C 161.66,320.194 161.66,322.027 165.5,325C 164.262,324.923 163.262,325.089 162.5,325.5C 163.465,326.914 164.465,327.747 165.5,328C 164.167,328.623 162.834,329.956 161.5,332C 162.448,332.483 163.448,332.649 164.5,332.5C 165.46,336.206 164.793,339.706 162.5,343C 163.5,343.833 164.5,344.667 165.5,345.5C 163.054,346.983 163.388,348.149 166.5,349C 165.216,349.684 164.049,349.517 163,348.5C 162.333,349.167 162.333,349.833 163,350.5C 165.734,351.362 165.901,352.195 163.5,353C 164.451,353.718 164.617,354.551 164,355.5C 163.086,354.346 162.253,354.513 161.5,356C 164.351,358.764 165.684,361.931 165.5,365.5C 164.365,367.799 163.032,369.966 161.5,372C 162.728,372.779 163.728,373.779 164.5,375C 164.056,378.118 162.389,379.951 159.5,380.5C 146.837,377.726 134.837,373.393 123.5,367.5C 125.048,367.179 125.715,366.179 125.5,364.5C 126.552,364.649 127.552,364.483 128.5,364C 125.953,362.684 125.287,360.851 126.5,358.5C 125.518,355.904 124.851,353.238 124.5,350.5C 125.5,350.5 126.5,350.5 127.5,350.5C 127.863,348.089 126.863,346.589 124.5,346C 125.357,345.311 126.023,344.478 126.5,343.5C 125.253,341.958 125.253,340.458 126.5,339C 123.962,337.829 123.462,336.329 125,334.5C 125.333,334.833 125.667,335.167 126,335.5C 125.771,332.19 127.271,330.356 130.5,330C 128.616,329.784 126.949,329.117 125.5,328C 126.738,328.077 127.738,327.911 128.5,327.5C 127.624,326.749 126.624,326.249 125.5,326C 125.833,325.667 126.167,325.333 126.5,325C 125.692,324.692 125.025,324.192 124.5,323.5C 125.891,323.891 126.891,323.058 127.5,321C 123.5,320.333 123.5,319.667 127.5,319C 128.054,316.388 127.387,313.888 125.5,311.5C 125.864,309.267 126.864,307.434 128.5,306C 127.328,305.581 126.328,304.915 125.5,304C 126.5,302.333 127.5,300.667 128.5,299C 127.004,298.493 125.837,298.993 125,300.5C 124.833,300.167 124.667,299.833 124.5,299.5C 125.714,297.931 127.381,297.098 129.5,297C 123.854,296.11 123.521,295.11 128.5,294C 127.833,293.667 127.167,293.333 126.5,293C 127.833,291.667 127.833,290.333 126.5,289C 127.5,288.167 128.5,287.333 129.5,286.5C 126.924,285.117 127.258,284.283 130.5,284C 129.167,283.333 129.167,282.667 130.5,282C 129.377,280.956 128.044,280.29 126.5,280C 127.551,278.615 128.884,277.615 130.5,277C 130.132,274.967 130.132,272.8 130.5,270.5C 130.333,270.167 130.167,269.833 130,269.5C 127.677,273.422 127.177,273.088 128.5,268.5C 127.975,267.808 127.308,267.308 126.5,267C 127.759,266.077 129.092,265.243 130.5,264.5C 128.427,264.432 126.76,263.599 125.5,262C 126.833,261.667 128.167,261.333 129.5,261C 128.788,259.575 128.621,258.075 129,256.5C 128.189,257.96 127.355,258.293 126.5,257.5C 127.182,254.634 128.516,252.134 130.5,250C 129.692,249.692 129.025,249.192 128.5,248.5C 129.167,247.5 129.833,246.5 130.5,245.5C 128.198,244.001 128.531,242.668 131.5,241.5C 130.975,240.808 130.308,240.308 129.5,240C 130.672,239.581 131.672,238.915 132.5,238C 131.167,236.333 129.833,234.667 128.5,233C 128.957,232.586 129.291,232.086 129.5,231.5C 128.358,229.622 127.358,227.788 126.5,226C 128.167,225.667 129.833,225.333 131.5,225C 129.9,223.392 128.567,221.559 127.5,219.5C 128.167,218.5 128.833,217.5 129.5,216.5C 128.975,215.808 128.308,215.308 127.5,215C 129.481,214.395 129.815,213.395 128.5,212C 132.852,211.581 133.185,210.914 129.5,210C 130.5,209.667 131.5,209.333 132.5,209C 131.167,208.333 131.167,207.667 132.5,207C 131.5,206.667 130.5,206.333 129.5,206C 130.471,204.796 131.471,204.296 132.5,204.5C 131.5,203.833 130.5,203.167 129.5,202.5C 130.025,201.808 130.692,201.308 131.5,201C 128.351,200.224 127.851,198.724 130,196.5C 131.085,198.657 132.251,198.824 133.5,197C 132.328,196.581 131.328,195.915 130.5,195C 130.67,193.43 131.003,191.597 131.5,189.5C 130.448,189.649 129.448,189.483 128.5,189C 133.68,183.93 132.68,181.763 125.5,182.5C 138.536,176.265 152.202,171.598 166.5,168.5 Z"/></g>
<g><path style="opacity:0.999" fill="#42d9bb" d="M 469.5,190.5 C 467.871,188.94 466.704,189.273 466,191.5C 464.3,187.016 461.466,185.516 457.5,187C 459.657,188.085 459.824,189.251 458,190.5C 457,189.167 456,189.167 455,190.5C 454,187.833 453,187.833 452,190.5C 450.221,189.521 448.555,189.854 447,191.5C 445.581,190.54 444.081,189.707 442.5,189C 443.673,185.89 443.173,185.723 441,188.5C 440.667,188.167 440.333,187.833 440,187.5C 438.611,191.272 437.611,191.272 437,187.5C 436.632,188.91 435.799,189.91 434.5,190.5C 433.15,189.05 431.484,188.383 429.5,188.5C 429.5,189.5 429.5,190.5 429.5,191.5C 425.563,191.207 421.73,191.54 418,192.5C 416.077,191.684 414.077,191.017 412,190.5C 408.507,191.669 405.007,191.669 401.5,190.5C 424.021,173.642 446.521,156.642 469,139.5C 469.5,156.497 469.667,173.497 469.5,190.5 Z"/></g>
<g><path style="opacity:0.999" fill="#fbab73" d="M 123.5,367.5 C 117.631,365.568 111.964,363.068 106.5,360C 100.266,356.392 94.2659,352.559 88.5,348.5C 88.4382,347.105 88.4382,345.605 88.5,344C 87.8333,343.333 87.1667,342.667 86.5,342C 88.1161,341.385 89.4495,340.385 90.5,339C 90.848,336.945 90.1814,334.945 88.5,333C 89.1667,332.667 89.8333,332.333 90.5,332C 89.1667,330.667 89.1667,329.333 90.5,328C 87.999,326.582 88.3323,325.582 91.5,325C 89.9559,324.71 88.6226,324.044 87.5,323C 88.8333,321.667 88.8333,320.333 87.5,319C 92.8722,315.944 92.7055,315.11 87,316.5C 86.134,314.104 86.634,313.437 88.5,314.5C 89.3081,314.192 89.9747,313.692 90.5,313C 86.9984,310.989 86.9984,309.656 90.5,309C 87.8333,308.333 87.8333,307.667 90.5,307C 89.8333,306.667 89.1667,306.333 88.5,306C 88.8881,304.475 88.8881,302.808 88.5,301C 90.8073,299.172 90.474,297.506 87.5,296C 89.0846,295.915 90.4179,295.749 91.5,295.5C 90.2713,294.719 88.938,294.219 87.5,294C 91.8148,291.831 92.1482,289.497 88.5,287C 89.1667,285.667 90.1667,284.667 91.5,284C 90.8333,283.667 90.1667,283.333 89.5,283C 93.5224,280.334 93.1891,278.001 88.5,276C 89.448,275.517 90.448,275.351 91.5,275.5C 91.3739,273.8 90.7073,272.3 89.5,271C 89.9126,269.204 89.9126,267.537 89.5,266C 90.5159,264.323 91.5159,262.657 92.5,261C 91.7107,260.454 90.7107,259.787 89.5,259C 90.5,258.667 91.5,258.333 92.5,258C 90.6969,257.363 89.3636,256.197 88.5,254.5C 90.3102,254.577 91.6435,253.41 92.5,251C 91.4147,248.828 90.0814,246.828 88.5,245C 89.4491,244.383 90.2825,244.549 91,245.5C 91.6172,244.551 91.4506,243.718 90.5,243C 93.1667,242.333 93.1667,241.667 90.5,241C 91.0966,239.372 90.7633,237.705 89.5,236C 92.696,233.464 92.696,231.964 89.5,231.5C 89.4125,228.402 89.9125,228.068 91,230.5C 91.3961,228.04 92.5628,226.04 94.5,224.5C 93.1095,224.891 92.1095,224.058 91.5,222C 93.9396,219.626 93.6063,217.459 90.5,215.5C 93.9528,214.521 94.2862,213.021 91.5,211C 94.4155,208.929 94.0822,207.595 90.5,207C 91.8333,206.333 93.1667,205.667 94.5,205C 92.3046,204.676 90.3046,203.843 88.5,202.5C 99.7512,194.038 112.085,187.371 125.5,182.5C 132.68,181.763 133.68,183.93 128.5,189C 129.448,189.483 130.448,189.649 131.5,189.5C 131.003,191.597 130.67,193.43 130.5,195C 131.328,195.915 132.328,196.581 133.5,197C 132.251,198.824 131.085,198.657 130,196.5C 127.851,198.724 128.351,200.224 131.5,201C 130.692,201.308 130.025,201.808 129.5,202.5C 130.5,203.167 131.5,203.833 132.5,204.5C 131.471,204.296 130.471,204.796 129.5,206C 130.5,206.333 131.5,206.667 132.5,207C 131.167,207.667 131.167,208.333 132.5,209C 131.5,209.333 130.5,209.667 129.5,210C 133.185,210.914 132.852,211.581 128.5,212C 129.815,213.395 129.481,214.395 127.5,215C 128.308,215.308 128.975,215.808 129.5,216.5C 128.833,217.5 128.167,218.5 127.5,219.5C 128.567,221.559 129.9,223.392 131.5,225C 129.833,225.333 128.167,225.667 126.5,226C 127.358,227.788 128.358,229.622 129.5,231.5C 129.291,232.086 128.957,232.586 128.5,233C 129.833,234.667 131.167,236.333 132.5,238C 131.672,238.915 130.672,239.581 129.5,240C 130.308,240.308 130.975,240.808 131.5,241.5C 128.531,242.668 128.198,244.001 130.5,245.5C 129.833,246.5 129.167,247.5 128.5,248.5C 129.025,249.192 129.692,249.692 130.5,250C 128.516,252.134 127.182,254.634 126.5,257.5C 127.355,258.293 128.189,257.96 129,256.5C 128.621,258.075 128.788,259.575 129.5,261C 128.167,261.333 126.833,261.667 125.5,262C 126.76,263.599 128.427,264.432 130.5,264.5C 129.092,265.243 127.759,266.077 126.5,267C 127.308,267.308 127.975,267.808 128.5,268.5C 127.177,273.088 127.677,273.422 130,269.5C 130.167,269.833 130.333,270.167 130.5,270.5C 130.132,272.8 130.132,274.967 130.5,277C 128.884,277.615 127.551,278.615 126.5,280C 128.044,280.29 129.377,280.956 130.5,282C 129.167,282.667 129.167,283.333 130.5,284C 127.258,284.283 126.924,285.117 129.5,286.5C 128.5,287.333 127.5,288.167 126.5,289C 127.833,290.333 127.833,291.667 126.5,293C 127.167,293.333 127.833,293.667 128.5,294C 123.521,295.11 123.854,296.11 129.5,297C 127.381,297.098 125.714,297.931 124.5,299.5C 124.667,299.833 124.833,300.167 125,300.5C 125.837,298.993 127.004,298.493 128.5,299C 127.5,300.667 126.5,302.333 125.5,304C 126.328,304.915 127.328,305.581 128.5,306C 126.864,307.434 125.864,309.267 125.5,311.5C 127.387,313.888 128.054,316.388 127.5,319C 123.5,319.667 123.5,320.333 127.5,321C 126.891,323.058 125.891,323.891 124.5,323.5C 125.025,324.192 125.692,324.692 126.5,325C 126.167,325.333 125.833,325.667 125.5,326C 126.624,326.249 127.624,326.749 128.5,327.5C 127.738,327.911 126.738,328.077 125.5,328C 126.949,329.117 128.616,329.784 130.5,330C 127.271,330.356 125.771,332.19 126,335.5C 125.667,335.167 125.333,334.833 125,334.5C 123.462,336.329 123.962,337.829 126.5,339C 125.253,340.458 125.253,341.958 126.5,343.5C 126.023,344.478 125.357,345.311 124.5,346C 126.863,346.589 127.863,348.089 127.5,350.5C 126.5,350.5 125.5,350.5 124.5,350.5C 124.851,353.238 125.518,355.904 126.5,358.5C 125.287,360.851 125.953,362.684 128.5,364C 127.552,364.483 126.552,364.649 125.5,364.5C 125.715,366.179 125.048,367.179 123.5,367.5 Z"/></g>
<g><path style="opacity:0.999" fill="#faaf72" d="M 88.5,202.5 C 90.3046,203.843 92.3046,204.676 94.5,205C 93.1667,205.667 91.8333,206.333 90.5,207C 94.0822,207.595 94.4155,208.929 91.5,211C 94.2862,213.021 93.9528,214.521 90.5,215.5C 93.6063,217.459 93.9396,219.626 91.5,222C 92.1095,224.058 93.1095,224.891 94.5,224.5C 92.5628,226.04 91.3961,228.04 91,230.5C 89.9125,228.068 89.4125,228.402 89.5,231.5C 92.696,231.964 92.696,233.464 89.5,236C 90.7633,237.705 91.0966,239.372 90.5,241C 93.1667,241.667 93.1667,242.333 90.5,243C 91.4506,243.718 91.6172,244.551 91,245.5C 90.2825,244.549 89.4491,244.383 88.5,245C 90.0814,246.828 91.4147,248.828 92.5,251C 91.6435,253.41 90.3102,254.577 88.5,254.5C 89.3636,256.197 90.6969,257.363 92.5,258C 91.5,258.333 90.5,258.667 89.5,259C 90.7107,259.787 91.7107,260.454 92.5,261C 91.5159,262.657 90.5159,264.323 89.5,266C 89.9126,267.537 89.9126,269.204 89.5,271C 90.7073,272.3 91.3739,273.8 91.5,275.5C 90.448,275.351 89.448,275.517 88.5,276C 93.1891,278.001 93.5224,280.334 89.5,283C 90.1667,283.333 90.8333,283.667 91.5,284C 90.1667,284.667 89.1667,285.667 88.5,287C 92.1482,289.497 91.8148,291.831 87.5,294C 88.938,294.219 90.2713,294.719 91.5,295.5C 90.4179,295.749 89.0846,295.915 87.5,296C 90.474,297.506 90.8073,299.172 88.5,301C 88.8881,302.808 88.8881,304.475 88.5,306C 89.1667,306.333 89.8333,306.667 90.5,307C 87.8333,307.667 87.8333,308.333 90.5,309C 86.9984,309.656 86.9984,310.989 90.5,313C 89.9747,313.692 89.3081,314.192 88.5,314.5C 86.634,313.437 86.134,314.104 87,316.5C 92.7055,315.11 92.8722,315.944 87.5,319C 88.8333,320.333 88.8333,321.667 87.5,323C 88.6226,324.044 89.9559,324.71 91.5,325C 88.3323,325.582 87.999,326.582 90.5,328C 89.1667,329.333 89.1667,330.667 90.5,332C 89.8333,332.333 89.1667,332.667 88.5,333C 90.1814,334.945 90.848,336.945 90.5,339C 89.4495,340.385 88.1161,341.385 86.5,342C 87.1667,342.667 87.8333,343.333 88.5,344C 88.4382,345.605 88.4382,347.105 88.5,348.5C 69.1297,336.132 54.7964,319.466 45.5,298.5C 52.869,297.851 60.2023,297.017 67.5,296C 78.4824,290.536 82.9824,281.703 81,269.5C 77.9015,261.207 72.0681,256.041 63.5,254C 57.4725,253.83 51.4725,253.33 45.5,252.5C 54.7964,231.534 69.1297,214.868 88.5,202.5 Z"/></g>
<g><path style="opacity:1" fill="#52deb9" d="M 469.5,190.5 C 469.5,198.5 469.5,206.5 469.5,214.5C 468.178,214.67 467.011,214.337 466,213.5C 465.333,216.167 464.667,216.167 464,213.5C 462.445,215.146 460.779,215.479 459,214.5C 458.333,215.167 457.667,215.833 457,216.5C 456,215.167 455,215.167 454,216.5C 453.223,214.785 451.89,213.785 450,213.5C 447.213,212.918 444.547,213.584 442,215.5C 438.542,215.062 435.209,215.062 432,215.5C 430.983,212.972 429.816,212.972 428.5,215.5C 427.808,214.975 427.308,214.308 427,213.5C 424.974,214.019 422.974,214.353 421,214.5C 419.983,211.972 418.816,211.972 417.5,214.5C 416.522,214.023 415.689,213.357 415,212.5C 412.876,213.227 410.709,213.894 408.5,214.5C 407.522,214.023 406.689,213.357 406,212.5C 404.343,213.509 402.677,214.509 401,215.5C 400.05,214.978 399.216,214.311 398.5,213.5C 397.28,214.711 396.113,214.711 395,213.5C 394.085,214.328 393.419,215.328 393,216.5C 391.312,214.955 389.312,213.955 387,213.5C 385.488,215.957 384.154,215.957 383,213.5C 381.417,213.493 379.751,213.826 378,214.5C 377,213.833 376,213.167 375,212.5C 373.275,213.464 371.441,214.131 369.5,214.5C 379.86,206.147 390.527,198.147 401.5,190.5C 405.007,191.669 408.507,191.669 412,190.5C 414.077,191.017 416.077,191.684 418,192.5C 421.73,191.54 425.563,191.207 429.5,191.5C 429.5,190.5 429.5,189.5 429.5,188.5C 431.484,188.383 433.15,189.05 434.5,190.5C 435.799,189.91 436.632,188.91 437,187.5C 437.611,191.272 438.611,191.272 440,187.5C 440.333,187.833 440.667,188.167 441,188.5C 443.173,185.723 443.673,185.89 442.5,189C 444.081,189.707 445.581,190.54 447,191.5C 448.555,189.854 450.221,189.521 452,190.5C 453,187.833 454,187.833 455,190.5C 456,189.167 457,189.167 458,190.5C 459.824,189.251 459.657,188.085 457.5,187C 461.466,185.516 464.3,187.016 466,191.5C 466.704,189.273 467.871,188.94 469.5,190.5 Z"/></g>
<g><path style="opacity:1" fill="#5ee2b8" d="M 469.5,214.5 C 469.5,221.5 469.5,228.5 469.5,235.5C 426.276,234.615 383.609,234.615 341.5,235.5C 350.437,228.025 359.771,221.025 369.5,214.5C 371.441,214.131 373.275,213.464 375,212.5C 376,213.167 377,213.833 378,214.5C 379.751,213.826 381.417,213.493 383,213.5C 384.154,215.957 385.488,215.957 387,213.5C 389.312,213.955 391.312,214.955 393,216.5C 393.419,215.328 394.085,214.328 395,213.5C 396.113,214.711 397.28,214.711 398.5,213.5C 399.216,214.311 400.05,214.978 401,215.5C 402.677,214.509 404.343,213.509 406,212.5C 406.689,213.357 407.522,214.023 408.5,214.5C 410.709,213.894 412.876,213.227 415,212.5C 415.689,213.357 416.522,214.023 417.5,214.5C 418.816,211.972 419.983,211.972 421,214.5C 422.974,214.353 424.974,214.019 427,213.5C 427.308,214.308 427.808,214.975 428.5,215.5C 429.816,212.972 430.983,212.972 432,215.5C 435.209,215.062 438.542,215.062 442,215.5C 444.547,213.584 447.213,212.918 450,213.5C 451.89,213.785 453.223,214.785 454,216.5C 455,215.167 456,215.167 457,216.5C 457.667,215.833 458.333,215.167 459,214.5C 460.779,215.479 462.445,215.146 464,213.5C 464.667,216.167 465.333,216.167 466,213.5C 467.011,214.337 468.178,214.67 469.5,214.5 Z"/></g>
<g><path style="opacity:1" fill="#68e5b7" d="M 469.5,235.5 C 469.5,241.5 469.5,247.5 469.5,253.5C 418.664,253.832 367.997,253.499 317.5,252.5C 325.518,246.808 333.518,241.142 341.5,235.5C 383.609,234.615 426.276,234.615 469.5,235.5 Z"/></g>
<g><path style="opacity:1" fill="#377666" d="M 317.5,252.5 C 367.997,253.499 418.664,253.832 469.5,253.5C 418.665,254.831 367.665,254.831 316.5,253.5C 316.624,252.893 316.957,252.56 317.5,252.5 Z"/></g>
<g><path style="opacity:0.999" fill="#f99272" d="M 248.5,297.5 C 261.5,297.5 274.5,297.5 287.5,297.5C 286.911,300.785 285.744,301.118 284,298.5C 283.833,299.167 283.667,299.833 283.5,300.5C 284.423,302.129 284.757,303.629 284.5,305C 283.833,305.333 283.167,305.667 282.5,306C 283.641,306.741 283.641,307.575 282.5,308.5C 284.475,309.275 285.309,310.609 285,312.5C 284.163,310.993 282.996,310.493 281.5,311C 283.037,312.11 283.703,313.61 283.5,315.5C 284.552,315.351 285.552,315.517 286.5,316C 285.35,318.212 284.35,320.379 283.5,322.5C 284.718,323.803 284.385,324.803 282.5,325.5C 284.795,327.509 286.128,329.675 286.5,332C 284.699,332.317 284.366,332.984 285.5,334C 284.5,336.333 283.5,338.667 282.5,341C 284.715,342.391 284.715,344.057 282.5,346C 283.634,347.016 283.301,347.683 281.5,348C 281.512,349.84 282.346,351.673 284,353.5C 284.654,352.304 285.154,352.304 285.5,353.5C 281.624,355.516 281.624,356.349 285.5,356C 284.284,357.594 282.951,359.094 281.5,360.5C 285.712,362.722 285.379,363.889 280.5,364C 283.464,364.84 283.797,365.84 281.5,367C 285.396,368.694 285.062,369.86 280.5,370.5C 280.846,371.696 281.346,371.696 282,370.5C 283.113,371.76 283.28,372.927 282.5,374C 284.991,374.626 284.991,375.459 282.5,376.5C 281.289,377.72 281.289,378.887 282.5,380C 281.643,380.689 280.977,381.522 280.5,382.5C 281.599,385.029 282.599,387.529 283.5,390C 282.619,390.708 281.953,391.542 281.5,392.5C 280.167,392.5 278.833,392.5 277.5,392.5C 277.666,384.826 277.5,377.159 277,369.5C 270.674,355.42 260.174,350.754 245.5,355.5C 244.013,352.788 244.679,350.621 247.5,349C 246.373,347.247 245.373,345.413 244.5,343.5C 244.694,341.93 244.694,340.43 244.5,339C 245.167,338.667 245.833,338.333 246.5,338C 243.668,336.092 244.001,335.259 247.5,335.5C 247.5,334.5 247.5,333.5 247.5,332.5C 246.448,332.649 245.448,332.483 244.5,332C 248.5,330.667 248.5,329.333 244.5,328C 247.639,325.963 248.472,323.463 247,320.5C 246.577,321.956 245.744,322.456 244.5,322C 245.747,320.542 245.747,319.042 244.5,317.5C 245.687,317.446 247.02,317.113 248.5,316.5C 247.5,315.833 246.5,315.167 245.5,314.5C 246.603,314.002 247.603,313.669 248.5,313.5C 247.263,312.719 246.263,311.719 245.5,310.5C 246.355,309.707 247.189,310.04 248,311.5C 247.57,309.873 247.404,308.373 247.5,307C 248.167,306.333 248.833,305.667 249.5,305C 247.721,305.979 246.055,305.646 244.5,304C 247.96,302.783 249.293,300.617 248.5,297.5 Z"/></g>
<g><path style="opacity:0.999" fill="#f98c71" d="M 287.5,297.5 C 298.167,297.5 308.833,297.5 319.5,297.5C 319.389,298.117 319.056,298.617 318.5,299C 319.667,299.5 320.5,300.333 321,301.5C 321.333,301.167 321.667,300.833 322,300.5C 322.707,302.081 323.54,303.581 324.5,305C 323.167,305.667 321.833,306.333 320.5,307C 321.308,307.308 321.975,307.808 322.5,308.5C 321.617,309.548 320.95,310.715 320.5,312C 321.5,313.667 322.5,315.333 323.5,317C 322.494,318.338 321.494,319.671 320.5,321C 321.624,321.249 322.624,321.749 323.5,322.5C 321.356,323.886 320.023,325.386 319.5,327C 320.167,329 321.5,330.333 323.5,331C 321.321,331.442 320.655,332.442 321.5,334C 320.833,335.333 320.167,336.667 319.5,338C 319.5,340.667 319.5,343.333 319.5,346C 321.759,349.274 322.592,349.107 322,345.5C 322.75,346.126 323.584,346.626 324.5,347C 323.5,348.667 322.167,350 320.5,351C 320.944,352.533 321.277,354.033 321.5,355.5C 319.369,355.338 318.369,356.671 318.5,359.5C 321.598,359.413 321.932,359.913 319.5,361C 321.973,363.08 321.973,365.246 319.5,367.5C 320.263,368.719 321.263,369.719 322.5,370.5C 321.289,371.72 321.289,372.887 322.5,374C 320.071,375.355 318.738,377.022 318.5,379C 319.623,380.044 320.956,380.71 322.5,381C 319.991,382.421 317.657,384.088 315.5,386C 316.252,386.671 316.586,387.504 316.5,388.5C 304.928,390.557 293.261,391.891 281.5,392.5C 281.953,391.542 282.619,390.708 283.5,390C 282.599,387.529 281.599,385.029 280.5,382.5C 280.977,381.522 281.643,380.689 282.5,380C 281.289,378.887 281.289,377.72 282.5,376.5C 284.991,375.459 284.991,374.626 282.5,374C 283.28,372.927 283.113,371.76 282,370.5C 281.346,371.696 280.846,371.696 280.5,370.5C 285.062,369.86 285.396,368.694 281.5,367C 283.797,365.84 283.464,364.84 280.5,364C 285.379,363.889 285.712,362.722 281.5,360.5C 282.951,359.094 284.284,357.594 285.5,356C 281.624,356.349 281.624,355.516 285.5,353.5C 285.154,352.304 284.654,352.304 284,353.5C 282.346,351.673 281.512,349.84 281.5,348C 283.301,347.683 283.634,347.016 282.5,346C 284.715,344.057 284.715,342.391 282.5,341C 283.5,338.667 284.5,336.333 285.5,334C 284.366,332.984 284.699,332.317 286.5,332C 286.128,329.675 284.795,327.509 282.5,325.5C 284.385,324.803 284.718,323.803 283.5,322.5C 284.35,320.379 285.35,318.212 286.5,316C 285.552,315.517 284.552,315.351 283.5,315.5C 283.703,313.61 283.037,312.11 281.5,311C 282.996,310.493 284.163,310.993 285,312.5C 285.309,310.609 284.475,309.275 282.5,308.5C 283.641,307.575 283.641,306.741 282.5,306C 283.167,305.667 283.833,305.333 284.5,305C 284.757,303.629 284.423,302.129 283.5,300.5C 283.667,299.833 283.833,299.167 284,298.5C 285.744,301.118 286.911,300.785 287.5,297.5 Z"/></g>
<g><path style="opacity:0.999" fill="#f88071" d="M 362.5,297.5 C 375.833,297.5 389.167,297.5 402.5,297.5C 403.684,298.688 403.684,299.855 402.5,301C 403.167,301.667 403.833,302.333 404.5,303C 402.744,303.202 401.078,303.702 399.5,304.5C 404.723,304.323 404.723,305.156 399.5,307C 400.833,307.667 402.167,308.333 403.5,309C 402.572,309.388 401.905,310.055 401.5,311C 402.931,311.487 404.265,312.821 405.5,315C 404.551,315.617 403.718,315.451 403,314.5C 403.43,316.127 403.596,317.627 403.5,319C 399.313,322.507 399.647,324.341 404.5,324.5C 403.965,326.271 403.131,326.604 402,325.5C 401.508,326.549 401.674,327.549 402.5,328.5C 399.924,329.883 400.258,330.717 403.5,331C 399.5,331.667 399.5,332.333 403.5,333C 402.643,333.689 401.977,334.522 401.5,335.5C 402.165,337.101 402.499,338.601 402.5,340C 401.692,340.308 401.025,340.808 400.5,341.5C 403.198,342.991 403.198,345.324 400.5,348.5C 401.656,351.046 402.656,353.546 403.5,356C 401.905,355.383 400.572,355.716 399.5,357C 400.167,357.333 400.833,357.667 401.5,358C 399.79,359.651 398.456,361.484 397.5,363.5C 384.897,369.48 371.897,374.48 358.5,378.5C 357.952,377.312 357.619,376.145 357.5,375C 360.297,371.822 361.63,368.322 361.5,364.5C 360.693,362.02 359.026,360.687 356.5,360.5C 356.5,359.167 356.5,357.833 356.5,356.5C 357.675,356.719 358.675,356.386 359.5,355.5C 358.833,355.167 358.167,354.833 357.5,354.5C 358.376,353.749 359.376,353.249 360.5,353C 359.167,351.667 359.167,350.333 360.5,349C 358.343,347.915 358.176,346.749 360,345.5C 361.087,347.932 361.587,347.598 361.5,344.5C 360.5,344.5 359.5,344.5 358.5,344.5C 358.587,341.402 358.087,341.068 357,343.5C 356.333,342.5 356.333,341.5 357,340.5C 358.692,340.324 360.192,339.824 361.5,339C 360.167,338.333 358.833,337.667 357.5,337C 358.833,336.667 360.167,336.333 361.5,336C 356.605,334.748 356.438,333.248 361,331.5C 361.333,332.5 361.667,333.5 362,334.5C 362.346,332.782 362.846,331.115 363.5,329.5C 362.469,328.3 361.635,326.966 361,325.5C 359.493,326.535 357.993,326.368 356.5,325C 358.884,323.59 360.55,321.59 361.5,319C 358.318,317.121 357.651,314.455 359.5,311C 359.095,310.055 358.428,309.388 357.5,309C 359.618,308.74 361.284,307.74 362.5,306C 361.262,306.077 360.262,305.911 359.5,305.5C 361.555,304.813 363.221,303.646 364.5,302C 362.429,300.564 360.596,301.064 359,303.5C 358.517,302.552 358.351,301.552 358.5,300.5C 360.973,300.912 362.306,299.912 362.5,297.5 Z"/></g>
<g><path style="opacity:0.999" fill="#f77870" d="M 402.5,297.5 C 423.503,297.333 444.503,297.5 465.5,298C 454.843,321.327 438.51,339.66 416.5,353C 410.277,356.729 403.943,360.229 397.5,363.5C 398.456,361.484 399.79,359.651 401.5,358C 400.833,357.667 400.167,357.333 399.5,357C 400.572,355.716 401.905,355.383 403.5,356C 402.656,353.546 401.656,351.046 400.5,348.5C 403.198,345.324 403.198,342.991 400.5,341.5C 401.025,340.808 401.692,340.308 402.5,340C 402.499,338.601 402.165,337.101 401.5,335.5C 401.977,334.522 402.643,333.689 403.5,333C 399.5,332.333 399.5,331.667 403.5,331C 400.258,330.717 399.924,329.883 402.5,328.5C 401.674,327.549 401.508,326.549 402,325.5C 403.131,326.604 403.965,326.271 404.5,324.5C 399.647,324.341 399.313,322.507 403.5,319C 403.596,317.627 403.43,316.127 403,314.5C 403.718,315.451 404.551,315.617 405.5,315C 404.265,312.821 402.931,311.487 401.5,311C 401.905,310.055 402.572,309.388 403.5,309C 402.167,308.333 400.833,307.667 399.5,307C 404.723,305.156 404.723,304.323 399.5,304.5C 401.078,303.702 402.744,303.202 404.5,303C 403.833,302.333 403.167,301.667 402.5,301C 403.684,299.855 403.684,298.688 402.5,297.5 Z"/></g>
<g><path style="opacity:0.998" fill="#f98771" d="M 319.5,297.5 C 333.833,297.5 348.167,297.5 362.5,297.5C 362.306,299.912 360.973,300.912 358.5,300.5C 358.351,301.552 358.517,302.552 359,303.5C 360.596,301.064 362.429,300.564 364.5,302C 363.221,303.646 361.555,304.813 359.5,305.5C 360.262,305.911 361.262,306.077 362.5,306C 361.284,307.74 359.618,308.74 357.5,309C 358.428,309.388 359.095,310.055 359.5,311C 357.651,314.455 358.318,317.121 361.5,319C 360.55,321.59 358.884,323.59 356.5,325C 357.993,326.368 359.493,326.535 361,325.5C 361.635,326.966 362.469,328.3 363.5,329.5C 362.846,331.115 362.346,332.782 362,334.5C 361.667,333.5 361.333,332.5 361,331.5C 356.438,333.248 356.605,334.748 361.5,336C 360.167,336.333 358.833,336.667 357.5,337C 358.833,337.667 360.167,338.333 361.5,339C 360.192,339.824 358.692,340.324 357,340.5C 356.333,341.5 356.333,342.5 357,343.5C 358.087,341.068 358.587,341.402 358.5,344.5C 359.5,344.5 360.5,344.5 361.5,344.5C 361.587,347.598 361.087,347.932 360,345.5C 358.176,346.749 358.343,347.915 360.5,349C 359.167,350.333 359.167,351.667 360.5,353C 359.376,353.249 358.376,353.749 357.5,354.5C 358.167,354.833 358.833,355.167 359.5,355.5C 358.675,356.386 357.675,356.719 356.5,356.5C 356.5,357.833 356.5,359.167 356.5,360.5C 359.026,360.687 360.693,362.02 361.5,364.5C 361.63,368.322 360.297,371.822 357.5,375C 357.619,376.145 357.952,377.312 358.5,378.5C 344.749,382.771 330.749,386.104 316.5,388.5C 316.586,387.504 316.252,386.671 315.5,386C 317.657,384.088 319.991,382.421 322.5,381C 320.956,380.71 319.623,380.044 318.5,379C 318.738,377.022 320.071,375.355 322.5,374C 321.289,372.887 321.289,371.72 322.5,370.5C 321.263,369.719 320.263,368.719 319.5,367.5C 321.973,365.246 321.973,363.08 319.5,361C 321.932,359.913 321.598,359.413 318.5,359.5C 318.369,356.671 319.369,355.338 321.5,355.5C 321.277,354.033 320.944,352.533 320.5,351C 322.167,350 323.5,348.667 324.5,347C 323.584,346.626 322.75,346.126 322,345.5C 322.592,349.107 321.759,349.274 319.5,346C 319.5,343.333 319.5,340.667 319.5,338C 320.167,336.667 320.833,335.333 321.5,334C 320.655,332.442 321.321,331.442 323.5,331C 321.5,330.333 320.167,329 319.5,327C 320.023,325.386 321.356,323.886 323.5,322.5C 322.624,321.749 321.624,321.249 320.5,321C 321.494,319.671 322.494,318.338 323.5,317C 322.5,315.333 321.5,313.667 320.5,312C 320.95,310.715 321.617,309.548 322.5,308.5C 321.975,307.808 321.308,307.308 320.5,307C 321.833,306.333 323.167,305.667 324.5,305C 323.54,303.581 322.707,302.081 322,300.5C 321.667,300.833 321.333,301.167 321,301.5C 320.5,300.333 319.667,299.5 318.5,299C 319.056,298.617 319.389,298.117 319.5,297.5 Z"/></g>
</svg>
